PathFileType	4	(X/Y/Z)	Patient4_TMGait_0pt5_01_left_05.trc.trc
DataRate	CameraRate	NumFrames	NumMarkers	Units	OrigDataRate	OrigDataStartFrame	OrigNumFrames
71.065989847716	71.065989847716	6	33	mm	71.065989847716	106	       141
Frame#	Time	L.ASIS			Sacral			L.Shoulder			Chest			R.Shoulder			Neck			R.ASIS			R.Thigh.Superior			R.Thigh.Lateral			R.Thigh.Inferior			R.Patella			L.Thigh.Superior			L.Thigh.Lateral			L.Thigh.Inferior			L.Patella			L.Shank.Superior			L.Shank.Lateral			L.Shank.Inferior			R.Shank.Superior			R.Shank.Lateral			R.Shank.Inferior			R.Heel			R.Midfoot.Superior			R.Midfoot.Lateral			R.Toe			L.Heel			L.Midfoot.Lateral			L.Midfoot.Superior			L.Toe			L.Elbow			L.Wrist			R.Elbow			R.Wrist			
		X1	Y1	Z1	X2	Y2	Z2	X3	Y3	Z3	X4	Y4	Z4	X5	Y5	Z5	X6	Y6	Z6	X7	Y7	Z7	X8	Y8	Z8	X9	Y9	Z9	X10	Y10	Z10	X11	Y11	Z11	X12	Y12	Z12	X13	Y13	Z13	X14	Y14	Z14	X15	Y15	Z15	X16	Y16	Z16	X17	Y17	Z17	X18	Y18	Z18	X19	Y19	Z19	X20	Y20	Z20	X21	Y21	Z21	X22	Y22	Z22	X23	Y23	Z23	X24	Y24	Z24	X25	Y25	Z25	X26	Y26	Z26	X27	Y27	Z27	X28	Y28	Z28	X29	Y29	Z29	X30	Y30	Z30	X31	Y31	Z31	X32	Y32	Z32	X33	Y33	Z33	

106	8.047500000000	709.110438159248	973.423792440957	382.893599081899	507.761280902072	1008.762933797369	557.739271876642	654.985914309476	1451.106425844756	391.382872576294	771.559774674507	1372.595142535755	539.003877706908	700.463913862374	1433.247849279409	724.155742403539	666.441808676675	1503.033394853228	545.392856295735	743.729693893033	946.429690337353	655.269388225279	767.885515752889	741.891183455444	621.513487230064	681.156588809964	635.494614026698	681.600123266879	752.295401655774	580.157802809665	600.267946195127	744.838536950960	491.226114788966	603.912527852847	783.886125720125	781.058430262730	394.328597737041	723.166781914710	657.507674028918	319.653663470359	827.475670001574	591.249597581293	368.494447668488	845.320251986230	513.166686571457	358.314089021567	806.033652728368	439.449648749954	352.246427553434	693.355407755142	342.075297583140	310.199447509828	743.923585177798	218.689553394764	358.997334168822	712.680062715542	404.586349480380	606.109364984189	634.789102912014	302.764786238634	662.561142321571	672.327302482927	208.548479368890	595.143674311240	527.604524637943	48.180818659786	559.494929253022	703.533518075601	98.193061485185	590.842447694976	614.260901389939	36.906072146319	629.007003029195	821.873026078174	39.245221553901	609.236123677141	606.725113447489	70.529911836892	405.994684280801	669.125571881509	64.054147358525	317.037756151305	760.033977759053	119.074017726561	331.594161820826	876.729027424493	60.407461247304	285.854211992953	605.062498997111	1102.067436125604	265.602201118278	659.276191191917	848.491541101932	240.344047730038	767.115598417756	1098.531199196198	846.294751815776	1011.281509311092	1016.094434472814	838.593609500599	
107	8.061571428571	707.116232075365	972.803750710763	383.017071025037	506.220817039386	1008.388128052742	558.203674775391	653.433561877436	1450.890435166738	392.108432559300	770.157460352855	1371.970551883108	539.355220060271	699.500326285054	1432.322327211369	724.791081958923	665.094037515394	1502.513738115200	546.287250855641	742.132225551131	946.001931570497	655.436042872384	765.371812804509	741.229561411209	621.903145513504	677.892090020704	635.097939134281	681.870276318008	748.624102537121	579.423674345930	600.626340373932	740.438400337361	490.489685018244	604.142267540986	780.934467743206	780.291420394943	394.512891139462	720.617053716431	657.098679715786	319.197963925435	824.539786464338	590.909146056580	369.187762533729	843.876814336743	514.919951280583	358.819794536259	808.599548796378	441.312822208491	351.718759431397	702.449680350093	337.671782095637	308.137750779512	760.354048174541	217.068209772313	356.317793622855	707.790214599309	403.958973003882	606.301160314143	629.221353998546	302.581639308684	662.762462235844	666.088687315493	208.170825982105	595.210082052161	520.550295473364	48.237512222513	559.517442719279	696.492776427128	98.132959966245	590.926298884313	607.161322748755	36.870258752342	628.976833887193	814.779159898001	39.118824239189	609.305530190210	632.045760883538	61.086156216585	401.633115997880	695.485342347458	58.110851890521	313.136725920265	783.229683572144	117.967569933117	328.396297174031	903.357475523019	65.645040122949	283.515336476646	597.180773268044	1103.294795663347	265.585024146839	639.799217085887	847.950026063110	239.846390452442	771.086288440005	1098.387137540808	845.247289447320	1018.404587008049	1026.989273957869	835.722347122941	
108	8.075642857143	705.219972566413	972.131577104464	383.038684757261	504.615959740579	1007.980530573975	558.422538747530	651.986052687227	1450.615280467946	392.580045274933	768.750071521622	1371.308381162225	539.553418390702	698.390006019070	1431.393256836180	725.199283403115	663.756119191137	1501.967778024948	546.937758311103	740.457280676887	945.539889573397	655.529663860478	762.853803542947	740.520202004612	622.256705544928	674.547040903745	634.671296021187	681.996640868255	744.912805669927	578.663466691529	600.868845186688	736.010876011319	489.730230081755	604.214970851528	777.923950419991	779.319479468401	394.684197385900	717.891093108789	656.563763575525	318.710971551243	821.468189760961	590.367837908526	369.792216643775	842.180791612900	516.497462253456	359.428029042689	810.802674284095	443.305684838939	351.315908895900	711.492539097402	333.947064224569	306.100626411467	776.324201644035	216.543242520569	353.843431319395	702.878955477584	403.300561432576	606.354163211908	623.653483865349	302.378249114476	662.843568473382	659.841521068927	207.765165365064	595.184483117867	513.489605465871	48.257602772674	559.513644463131	689.447312731720	98.067458356558	590.974371778973	600.060761438011	36.833956805222	628.930107531907	807.683066334232	39.000079990590	609.373968188625	656.962991423454	53.722430038993	397.403619780152	721.505132336303	53.848896992891	309.575364322223	805.962560906562	118.088294373042	325.578225092368	929.108875513012	71.736605840071	282.079762429591	589.282202923131	1104.602298076711	265.421549248076	621.126006336762	848.049069660162	239.690768385420	774.679901012558	1098.200181831085	843.813618381657	1024.597876398798	1037.841500317864	832.374359541459	
109	8.089714285714	703.418010384308	971.467857700605	382.953477539036	502.942428975324	1007.589005006659	558.408072526111	650.629426739909	1450.314979469452	392.792904665076	767.340284839186	1370.650106078731	539.585404623509	697.157846323817	1430.515575506031	725.371458215438	662.422055405310	1501.435884359870	547.333716372183	738.710587666404	945.070815490642	655.540494571266	760.273859507389	739.787042258188	622.519307429675	671.084867570111	634.247849063665	681.977408165458	741.099694338143	577.900107407692	600.977606859556	731.497912448467	488.976377059752	604.134787492491	774.966771195621	778.273093107849	394.796329667310	715.088298940545	655.973433290939	318.203331950242	818.421587945880	589.739214615848	370.212795258381	840.378291776933	517.972915164864	360.068354272041	812.711326448651	445.441431788750	351.018799195587	720.369993514011	330.974811934398	304.142956011731	791.622381108147	217.075095325249	351.629514849694	697.891418127449	402.639950444427	606.275141249697	618.037076538356	302.181957014195	662.811526599447	653.562092745749	207.359534861848	595.082695096374	506.422485256483	48.252790461902	559.491086945791	682.402977312417	98.006092976521	590.994942593145	592.962180910595	36.799975007980	628.873076751159	800.587580617313	38.893554090333	609.439124595234	681.037527147868	48.427509879701	393.440343797486	746.763745198077	51.204441350092	306.469562252334	827.904747194299	119.349988090508	323.207229160624	953.678124776103	78.509668412457	281.585680638221	581.402451159631	1106.001390290005	265.178133371913	603.341045216705	848.680347560897	239.871612479210	777.896051359198	1098.020706788264	842.015417904538	1029.854410000963	1048.580541786872	828.591418505219	
110	8.103785714286	701.707827604656	970.862375131710	382.754834544277	501.207244360109	1007.249965831045	558.172076434478	649.345732986479	1450.017645092987	392.747649202404	765.928974411437	1370.029803661493	539.440142317349	695.829905324833	1429.732990485266	725.303301939156	661.081755078635	1500.948942899230	547.468507124695	736.900336001140	944.617560687399	655.457336512849	757.580631498926	739.050887209866	622.644153508115	667.477469881669	633.856519027348	681.817225893610	737.135001537236	577.153339811150	600.944500965937	726.853359271321	488.252320439624	603.916742803837	772.178471913387	777.276835142491	394.807798501881	712.327886319574	655.384496689363	317.688933535993	815.561510549099	589.124578444234	370.388614331680	838.623384610813	519.406609244354	360.679542561246	814.406104486605	447.699036981390	350.810060216372	728.950894627515	328.767767538807	302.326914774632	806.033745455115	218.534011771516	349.723308568167	692.781205509096	402.002249513303	606.078478078473	612.329294753515	302.016562061348	662.679388767923	647.229259732582	206.978229871828	594.923957652250	499.348224636571	48.234414939830	559.457057501433	675.362768167306	97.956632084759	590.996655835980	585.866215018609	36.770416310117	628.811727660065	793.493816287479	38.802053560832	609.498656278990	703.821458521113	45.050482764530	389.871303487294	770.808425584344	50.001004232932	303.909313026212	848.704606600791	121.573190745336	321.324647652799	976.742991130407	85.715766475816	281.992554655311	573.583613372176	1107.496322398014	264.910819229706	586.508010524178	849.739494125959	240.366607931666	780.735036366930	1097.892174095016	839.885946915388	1034.184563812265	1059.123451232485	824.423428839221	
111	8.117857142857	700.091249960992	970.348138967018	382.434521910875	499.429454260277	1006.981947263057	557.723320296050	648.114077531226	1449.741650043588	392.449471460401	764.514827074559	1369.470607668273	539.109190494776	694.429502275862	1429.072614804344	724.994946195346	659.722251050901	1500.524143306995	547.338690800659	735.037629166200	944.195573059012	655.268659508551	754.736415446480	738.325965692544	622.599821697494	663.707377058976	633.518505212639	681.526119724642	732.986222552506	576.436681167396	600.772610478415	722.047099155373	487.574768442337	603.584188835212	769.667183427366	776.435885471843	394.689297644499	709.743653215468	654.835553052969	317.181650319278	813.039527992855	588.604066249553	370.300485106125	837.068136175702	520.834453666976	361.215588166178	815.972177139601	450.021263521289	350.677117897374	737.091237555346	327.280012200728	300.717915005332	819.341599142811	220.711054432613	348.165590519023	687.515625913623	401.406136106047	605.784287177858	606.497705525059	301.899357365146	662.464279842752	640.826916670733	206.638815225149	594.728054562565	492.265576300637	48.211821588619	559.417407786674	668.326341707174	97.924095066809	590.986955474523	578.771333685951	36.746812633938	628.750948684696	786.401025698441	38.726937091321	609.550542276677	724.870047665509	43.323447320401	386.814897298596	793.164541580031	49.971743654476	301.956968724082	867.992288933130	124.499538619148	319.949149123193	997.961824060854	93.041249156103	283.187951459927	565.873715622853	1109.080296817904	264.660826399683	570.675959806289	851.126590683674	241.136635771781	783.198877107184	1097.846731758638	837.470168248577	1037.616614527645	1069.376078039136	819.928420053578	
